<?xml version="1.0" encoding="utf-8"?>
<!-- Generator: Adobe Illustrator 16.0.0, SVG Export Plug-In . SVG Version: 6.00 Build 0)  -->
<!DOCTYPE svg PUBLIC "-//W3C//DTD SVG 1.1//EN" "http://www.w3.org/Graphics/SVG/1.1/DTD/svg11.dtd">
<svg version="1.1" id="Layer_1" xmlns="http://www.w3.org/2000/svg" xmlns:xlink="http://www.w3.org/1999/xlink" x="0px" y="0px"
	 width="293.333px" height="104.167px" viewBox="0 0 293.333 104.167" enable-background="new 0 0 293.333 104.167"
	 xml:space="preserve">
<g>
	<path fill="#FFFFFF" d="M50.398,21.219c0,0,0.097-1.56-1.713-1.764c0,0-0.915-0.102-0.901-0.796v-0.232l13.913,0.012l0.532,4.702
		c0,0-0.836,0.315-1.039-0.205c-0.205-0.517-0.136-3.073-2.668-3.188h-4.018c0,0-0.534-0.005-0.531,0.606l0.001,7.005
		c0,0,0.003,0.483,0.557,0.483h3.855c0,0,1.401,0.113,1.56-1.81c0,0,0.09-0.903,0.927-0.903h0.182v6.665h-0.182
		c-0.837,0-0.927-0.905-0.927-0.905c-0.158-1.922-1.56-1.81-1.56-1.81h-3.855c0,0-0.53-0.005-0.53,0.606v6.034
		c0,0-0.061,1.505,2.013,1.766c0,0,0.903,0.09,0.903,0.795v0.18h-9.133v-0.18c-0.014-0.695,0.901-0.795,0.901-0.795
		c1.864-0.244,1.713-1.766,1.713-1.766V21.219z"/>
	<path fill="#FFFFFF" d="M99.202,19.38c3.285,0,3.61,3.036,3.813,3.558c0.206,0.52,1.042,0.203,1.042,0.203l-0.575-4.243
		c0,0-1.507-0.784-4.25-0.814c0,0-6.42-0.362-6.358,5.637c0,0-0.092,3.589,3.677,5.276c3.913,1.755,5.185,2.443,5.244,5.277
		c0,0,0.137,3.407-3.737,3.433c0,0-3.406,0.107-4.822-4.671c0,0-0.904-0.241-0.935,0.392l1.023,4.49c0,0,1.238,1.163,5.336,1.087
		c0,0,6.438-0.196,6.451-6.512c0,0,0.091-3.918-4.311-5.576c0,0-4.731-1.809-4.731-4.494C96.069,22.422,95.707,19.38,99.202,19.38"
		/>
	<path fill="#FFFFFF" d="M80.006,19.749c0,0-0.531-0.006-0.528,0.604l0.003,8.509h1.899c0,0,3.731-0.362,3.731-4.861
		c0,0,0.043-4.001-3.731-4.246L80.006,19.749z M73.421,38.462v-0.18c-0.009-0.695,0.905-0.796,0.905-0.796
		c1.906-0.229,1.847-1.765,1.847-1.765V21.219c0,0-0.038-1.56-1.847-1.764c0,0-0.914-0.101-0.905-0.795v-0.234h10.197
		c0,0,5.313,0.147,5.313,5.393c0,3.527-2.51,4.243-3.505,4.815c-0.639,0.369-0.136,1.039-0.136,1.039
		c4.93,8.028,6.279,8.256,6.672,8.344c0.202,0.046,0.064,0.656,0.064,0.656c-5.988,0.181-6.736-2.396-7.37-3.503
		c-0.633-1.111-3.074-5.225-3.074-5.225h-2.079v5.775c0,0-0.12,1.625,2.012,1.765c0,0,0.904,0.09,0.904,0.796v0.18H73.421z"/>
	<path fill="#FFFFFF" d="M66.029,21.173c0,0,0.136-1.583-1.712-1.764c0,0-0.914-0.104-0.905-0.796v-0.18h8.608v0.18
		c0.011,0.692-0.904,0.796-0.904,0.796c-1.811,0.203-1.711,1.764-1.711,1.764v14.548c0,0-0.1,1.561,1.711,1.766
		c0,0,0.915,0.102,0.904,0.794v0.182h-8.608v-0.182c-0.009-0.692,0.905-0.794,0.905-0.794c1.811-0.205,1.712-1.766,1.712-1.766
		V21.173z"/>
	<path fill="#FFFFFF" d="M169.415,18.434v0.18c0.016,0.842,0.902,0.796,0.902,0.796c2.57-0.022,2.314,1.764,2.314,1.764v8.547
		c-0.082,7.808-5.539,7.415-5.539,7.415c-5.607,0.243-5.09-7.415-5.09-7.415v-8.547c0,0-0.1-1.559,1.709-1.764
		c0,0,0.916-0.104,0.906-0.796v-0.18h-8.607v0.18c-0.014,0.692,0.902,0.796,0.902,0.796c1.85,0.181,1.713,1.764,1.713,1.764v11.171
		c0,0-0.307,6.631,7.654,6.631c0,0,8.168,0.489,7.926-9.255v-8.547c0,0-0.074-1.559,1.98-1.764c0,0,0.916-0.104,0.904-0.796v-0.18
		H169.415z"/>
	<path fill="#FFFFFF" d="M247.913,18.434v0.18c0.014,0.842,0.902,0.796,0.902,0.796c2.57-0.022,2.316,1.764,2.316,1.764v8.547
		c-0.084,7.808-5.539,7.415-5.539,7.415c-5.607,0.243-5.092-7.415-5.092-7.415v-8.547c0,0-0.098-1.559,1.711-1.764
		c0,0,0.916-0.104,0.906-0.796v-0.18h-8.611v0.18c-0.01,0.692,0.904,0.796,0.904,0.796c1.85,0.181,1.713,1.764,1.713,1.764v11.171
		c0,0-0.303,6.631,7.652,6.631c0,0,8.17,0.489,7.93-9.255v-8.547c0,0-0.076-1.559,1.979-1.764c0,0,0.918-0.104,0.904-0.796v-0.18
		H247.913z"/>
	<path fill="#FFFFFF" d="M121.896,18.45c0.328,0,0.543-0.408,0.632-0.69c0.091-0.283,0.26-0.259,0.26-0.259
		c0.308-0.013,0.317,0.259,0.317,0.259l0.396,5.643h-1.006c-0.318-3.607-3.867-3.675-3.867-3.675h-2.377v15.994
		c0,0-0.029,1.444,2.216,1.765c0,0,0.916,0.102,0.904,0.796v0.18h-9.315v-0.18c-0.01-0.695,0.905-0.796,0.905-0.796
		c1.959-0.214,1.912-1.765,1.912-1.765V19.727h-2.124c0,0-3.549,0.067-3.866,3.675h-1.008l0.397-5.643c0,0,0.012-0.271,0.316-0.259
		c0,0,0.17-0.024,0.261,0.259c0.091,0.282,0.304,0.69,0.634,0.69H121.896z"/>
	<path fill="#FFFFFF" d="M232.245,18.45c0.328,0,0.543-0.408,0.635-0.69c0.088-0.283,0.258-0.259,0.258-0.259
		c0.307-0.013,0.316,0.259,0.316,0.259l0.396,5.643h-1.006c-0.316-3.607-3.865-3.675-3.865-3.675H226.6v15.994
		c0,0-0.029,1.444,2.215,1.765c0,0,0.916,0.102,0.904,0.796v0.18h-9.314v-0.18c-0.01-0.695,0.906-0.796,0.906-0.796
		c1.959-0.214,1.912-1.765,1.912-1.765V19.727h-2.125c0,0-3.549,0.067-3.865,3.675h-1.006l0.396-5.643c0,0,0.01-0.271,0.316-0.259
		c0,0,0.168-0.024,0.258,0.259c0.09,0.282,0.307,0.69,0.637,0.69H232.245z"/>
	<path fill="#FFFFFF" d="M138.118,28.426c0-5.005,2.881-9.061,6.436-9.061c3.558,0,6.441,4.056,6.441,9.061
		c0,5.007-2.883,9.065-6.441,9.065C140.999,37.492,138.118,33.433,138.118,28.426 M157.491,44.19c0,0-8.404-4.555-9.9-5.723
		c4.018-1.373,6.918-5.253,6.918-9.833c0-5.729-4.531-10.371-10.121-10.371c-5.592,0-10.122,4.642-10.122,10.371
		c0,5.468,4.131,9.935,9.367,10.335c1.125,0.937,5.247,3.98,13.586,6.193c0.68,0.181,0.861,0.022,0.928-0.114
		C158.147,45.048,158.465,44.733,157.491,44.19"/>
	<path fill="#FFFFFF" d="M197.012,38.468l0.061-1.077l-0.211-0.724c-1.373,1.011-2.498,0.92-2.498,0.92
		c-1.986,0.046-2.416-1.626-2.416-1.626l-7.055-17.726c-0.857-0.183-1.084,0.497-1.084,0.497l-6.604,17.002
		c0,0-0.363,1.514-1.877,1.751c0,0-0.916,0.102-0.906,0.798v0.179h6.717v-0.179c0.023-0.718-0.902-0.798-0.902-0.798
		c-1.582-0.058-1.041-1.616-1.041-1.616l1.379-4.387h5.766l1.9,5.145c0,0,0.318,0.668-1.096,0.858c0,0-0.805,0.115-0.781,0.798
		v0.179L197.012,38.468z M183.604,23.343l2.27,6.587h-4.822l2.201-6.572C183.401,23.051,183.604,23.343,183.604,23.343"/>
	<path fill="#FFFFFF" d="M259.932,23.072c0.16-0.496,0.387-0.11,0.387-0.11l6.285,15.01h1.287l6.646-15.462
		c0.092-0.227,0.389-0.076,0.389-0.076V35.72c0,0,0.178,1.564-1.541,1.766c0,0-0.914,0.102-0.902,0.796v0.18h8.938v-0.18
		c0.012-0.695-0.904-0.796-0.904-0.796c-2.246-0.32-2.215-1.766-2.215-1.766V20.856c0.053-1.74,2.363-1.467,2.363-1.467v-0.951
		h-5.719l-6.307,14.65L261.6,18.431h-5.578c-0.016,0.377,0.029,1.132,0.918,1.189c1.863,0.128,1.771,1.644,1.771,1.644
		l-0.586,14.472c0,0,0.053,1.49-1.877,1.69c0,0-0.996,0.138-0.939,0.889v0.181l7.406-0.002V38.31
		c-0.016-0.799-1.238-0.843-1.238-0.843c-1.791-0.106-1.711-1.763-1.711-1.763v-0.183L259.932,23.072z"/>
	<path fill="#FFFFFF" d="M201.934,38.462v-0.18c-0.012-0.74-0.904-0.796-0.904-0.796c-2.41-0.033-2.215-1.765-2.215-1.765
		l0.029-12.037c0.205-0.023,0.246,0.067,0.246,0.067l12.301,15.012h1.516v-17.5c0,0-0.098-1.763,1.938-1.763
		c0,0,1.143,0.034,0.979-0.973v-0.094h-7.846v0.18c-0.002,0.931,1.68,0.887,1.68,0.887c1.729,0,1.713,1.763,1.713,1.763v0.183v11.28
		c-0.271,0.046-0.621-0.417-0.621-0.417L199.09,18.393h-4.904v0.971c3.232,0.341,3.076,2.509,3.076,2.509v12.64
		c0.07,2.759-2.236,3.074-2.236,3.074s-0.916,0.187-0.904,0.881L201.934,38.462z"/>
	<path fill="#FFFFFF" d="M178.938,44.996c0,0,0.053-0.612-0.662-0.683c0,0-0.355-0.04-0.348-0.307v-0.072h3.328v0.072
		c0.002,0.267-0.352,0.307-0.352,0.307c-0.697,0.078-0.658,0.683-0.658,0.683v5.632c0,0-0.039,0.603,0.658,0.681
		c0,0,0.354,0.042,0.352,0.316v0.059h-3.328v-0.059c-0.008-0.274,0.348-0.316,0.348-0.316c0.699-0.078,0.662-0.681,0.662-0.681
		V44.996z"/>
	<path fill="#FFFFFF" d="M240.538,44.233c1.275,0,1.4,1.175,1.479,1.377c0.08,0.199,0.402,0.077,0.402,0.077l-0.223-1.643
		c0,0-0.582-0.301-1.645-0.315c0,0-2.48-0.139-2.461,2.184c0,0-0.033,1.391,1.422,2.042c1.516,0.681,2.01,0.947,2.033,2.041
		c0,0,0.051,1.317-1.449,1.332c0,0-1.316,0.041-1.865-1.808c0,0-0.352-0.094-0.367,0.151l0.398,1.732c0,0,0.482,0.456,2.068,0.422
		c0,0,2.49-0.066,2.496-2.519c0,0,0.035-1.514-1.67-2.158c0,0-1.826-0.699-1.826-1.739C239.331,45.41,239.19,44.233,240.538,44.233"
		/>
	<path fill="#FFFFFF" d="M267.618,43.848c0.125,0,0.207-0.158,0.246-0.267c0.033-0.112,0.1-0.103,0.1-0.103
		c0.119-0.004,0.123,0.103,0.123,0.103l0.15,2.181h-0.389c-0.123-1.396-1.494-1.421-1.494-1.421h-0.922v6.192
		c0,0-0.012,0.559,0.857,0.682c0,0,0.355,0.04,0.35,0.307v0.072h-3.605v-0.072c-0.004-0.267,0.35-0.307,0.35-0.307
		c0.762-0.084,0.74-0.682,0.74-0.682v-6.192h-0.82c0,0-1.375,0.025-1.496,1.421h-0.391l0.154-2.181c0,0,0.004-0.106,0.121-0.103
		c0,0,0.066-0.01,0.102,0.103c0.035,0.108,0.117,0.267,0.246,0.267H267.618z"/>
	<path fill="#FFFFFF" d="M165.805,45.731c0.061-0.191,0.148-0.046,0.148-0.046l2.434,5.813h0.496l2.574-5.99
		c0.037-0.083,0.15-0.024,0.15-0.024v5.144c0,0,0.068,0.604-0.594,0.681c0,0-0.355,0.042-0.352,0.314v0.06h3.459v-0.06
		c0.008-0.272-0.352-0.314-0.352-0.314c-0.869-0.124-0.855-0.681-0.855-0.681v-5.756c0.021-0.672,0.916-0.568,0.916-0.568v-0.368
		h-2.217l-2.439,5.672l-2.725-5.673h-2.156c-0.006,0.146,0.01,0.435,0.354,0.458c0.723,0.052,0.688,0.64,0.688,0.64l-0.227,5.599
		c0,0-0.064,0.598-0.727,0.652c0,0-0.354,0.076-0.365,0.347v0.066h2.865v-0.066c0-0.292-0.477-0.33-0.477-0.33
		c-0.74-0.056-0.662-0.681-0.662-0.681V50.55L165.805,45.731z"/>
	<path fill="#FFFFFF" d="M210.079,44.444c0,0-0.209-0.003-0.209,0.232l0.004,3.294h0.738c0,0,1.441-0.141,1.441-1.883
		c0,0,0.018-1.55-1.441-1.643L210.079,44.444z M207.528,51.682v-0.06c-0.002-0.273,0.354-0.314,0.354-0.314
		c0.738-0.088,0.713-0.68,0.713-0.68v-5.616c0,0-0.016-0.604-0.713-0.685c0,0-0.355-0.037-0.354-0.306v-0.091h3.947
		c0,0,2.057,0.058,2.057,2.087c0,1.368-0.969,1.643-1.354,1.865c-0.248,0.146-0.055,0.402-0.055,0.402
		c1.908,3.104,2.43,3.199,2.584,3.228c0.072,0.016,0.023,0.253,0.023,0.253c-2.318,0.07-2.607-0.928-2.852-1.354
		c-0.246-0.429-1.191-2.021-1.191-2.021h-0.807v2.237c0,0-0.045,0.626,0.779,0.68c0,0,0.352,0.037,0.352,0.314v0.06H207.528z"/>
	<path fill="#FFFFFF" d="M188.086,51.623V51.54c-0.006-0.282-0.352-0.301-0.352-0.301c-0.865-0.041-0.857-0.684-0.857-0.684
		l0.01-4.66c0.08-0.01,0.098,0.026,0.098,0.026l4.762,5.812h0.586v-6.688c0,0-0.039-0.684,0.75-0.684c0,0,0.441,0.014,0.381-0.374
		v-0.036h-3.039v0.069c-0.002,0.36,0.648,0.341,0.648,0.341c0.672,0,0.666,0.684,0.666,0.684v0.07v4.28
		c-0.107,0.019-0.242-0.164-0.242-0.164l-4.512-5.3h-1.9v0.381c1.252,0.13,1.191,0.88,1.191,0.88v4.893
		c0.027,1.065-0.865,1.188-0.865,1.188s-0.352,0.076-0.35,0.35H188.086z"/>
	<path fill="#FFFFFF" d="M225.18,51.274c-0.584-0.064-0.852-0.626-0.852-0.626l-2.729-6.86c-0.336-0.07-0.422,0.193-0.422,0.193
		l-2.559,6.581c0,0-0.141,0.583-0.723,0.679c0,0-0.355,0.033-0.355,0.3v0.082h2.604v-0.082c0.008-0.272-0.352-0.3-0.352-0.3
		c-0.611-0.021-0.4-0.627-0.4-0.627l0.535-1.697h2.23l0.734,1.988c0,0,0.123,0.257-0.426,0.336c0,0-0.309,0.041-0.301,0.3v0.082
		l3.469,0.002C225.635,51.276,225.18,51.274,225.18,51.274 M221.1,45.765l0.875,2.551h-1.867l0.852-2.544
		C221.018,45.651,221.1,45.765,221.1,45.765"/>
	<path fill="#FFFFFF" d="M199.68,50.871c-0.002,0.239,0.207,0.235,0.207,0.235h1.906c0.982-0.043,0.953-1.035,1.033-1.233
		c0.08-0.202,0.402-0.082,0.402-0.082l-0.203,1.825l-5.756,0.007v-0.097c-0.004-0.27,0.35-0.307,0.35-0.307
		c0.695-0.083,0.662-0.672,0.662-0.672V45.01c0,0,0.033-0.604-0.662-0.684c0,0-0.354-0.037-0.35-0.305v-0.089h5.354l0.203,1.82
		c0,0-0.324,0.124-0.402-0.077c-0.08-0.203-0.053-1.19-1.035-1.235h-1.518c0,0-0.211,0-0.211,0.235l0.006,2.643
		c0,0,0,0.189,0.215,0.189h1.457c0,0,0.541,0.045,0.607-0.701c0,0,0.031-0.353,0.354-0.353h0.072v2.583h-0.072
		c-0.322,0-0.354-0.35-0.354-0.35c-0.066-0.744-0.607-0.7-0.607-0.7h-1.457c0,0-0.209-0.001-0.209,0.235v2.335L199.68,50.871z"/>
	<path fill="#FFFFFF" d="M231.333,50.557l0.006,0.313c-0.002,0.236,0.207,0.235,0.207,0.235h1.533
		c0.984-0.043,0.957-1.032,1.035-1.233c0.08-0.201,0.402-0.078,0.402-0.078l-0.205,1.822l-5.383,0.006v-0.097
		c-0.008-0.27,0.348-0.307,0.348-0.307c0.701-0.08,0.662-0.673,0.662-0.673v-5.535c0,0,0.055-0.614-0.662-0.685
		c0,0-0.355-0.037-0.348-0.306v-0.069h3.412v0.069c0.004,0.269-0.35,0.306-0.35,0.306c-0.701,0.081-0.66,0.685-0.66,0.685
		L231.333,50.557z"/>
	<path fill="#FFFFFF" d="M256.063,50.557l0.006,0.313c0,0.236,0.203,0.235,0.203,0.235h1.539c0.98-0.043,0.953-1.032,1.033-1.233
		c0.078-0.201,0.402-0.078,0.402-0.078l-0.207,1.822l-5.381,0.006v-0.097c-0.006-0.27,0.348-0.307,0.348-0.307
		c0.697-0.08,0.662-0.673,0.662-0.673v-5.535c0,0,0.055-0.614-0.662-0.685c0,0-0.354-0.037-0.348-0.306v-0.069h3.406v0.069
		c0.006,0.269-0.346,0.306-0.346,0.306c-0.703,0.081-0.662,0.685-0.662,0.685L256.063,50.557z"/>
	<path fill="#FFFFFF" d="M273.473,50.857c0,0,3.939,0.584,3.982-3.291c0,0,0.047-3.157-3.787-3.146l-0.268-0.004
		c0,0-0.207-0.001-0.207,0.236v5.95C273.194,50.603,273.227,50.823,273.473,50.857 M274.208,51.658h-3.621v-0.062
		c-0.006-0.27,0.348-0.316,0.348-0.316c0.738-0.082,0.719-0.677,0.719-0.677v-5.616c0,0,0.02-0.663-0.719-0.68
		c0,0-0.336,0.007-0.348-0.309l0.002-0.091h3.885c2.973,0,4.332,1.244,4.336,3.951C278.698,51.622,274.208,51.658,274.208,51.658"/>
	<path fill="#FFFFFF" d="M282.145,50.881c0,0.4-0.324,0.724-0.721,0.724c-0.402,0-0.725-0.323-0.725-0.724
		c0-0.399,0.322-0.723,0.725-0.723C281.821,50.159,282.145,50.482,282.145,50.881"/>
	<polygon fill="#FFFFFF" points="16.8,17.634 19.438,20.271 23.253,16.454 28.232,21.434 24.417,25.251 31.099,31.933 
		33.762,29.273 29.758,25.272 33.661,21.37 23.354,11.063 	"/>
	<polygon fill="#FFFFFF" points="11.716,35.827 14.354,33.19 10.536,29.373 15.516,24.394 19.333,28.212 26.015,21.527 
		23.356,18.866 19.354,22.868 15.452,18.967 5.146,29.272 	"/>
	<polygon fill="#FFFFFF" points="29.907,40.912 27.272,38.276 23.454,42.092 18.476,37.113 22.292,33.294 15.609,26.613 
		12.949,29.273 16.949,33.276 13.048,37.176 23.354,47.484 	"/>
	<polygon fill="#FFFFFF" points="34.991,22.718 32.354,25.356 36.173,29.172 31.193,34.153 27.377,30.333 20.692,37.017 
		23.353,39.679 27.356,35.678 31.256,39.581 41.563,29.273 	"/>
	<path fill="#FFFFFF" d="M69.875,75.259c-1.005-0.7-2.201-1.052-3.584-1.052c-1.183,0-2.192,0.222-3.031,0.665
		c-0.841,0.442-1.534,1.037-2.079,1.785c-0.543,0.748-0.943,1.601-1.205,2.562c-0.257,0.961-0.386,1.957-0.386,2.991
		c0,1.125,0.129,2.191,0.386,3.197c0.262,1.006,0.662,1.882,1.205,2.631c0.545,0.746,1.243,1.342,2.092,1.784
		c0.85,0.445,1.864,0.666,3.047,0.666c0.866,0,1.638-0.144,2.311-0.431c0.674-0.285,1.255-0.681,1.745-1.188
		c0.488-0.509,0.869-1.113,1.147-1.814c0.275-0.702,0.442-1.458,0.498-2.271h2.631c-0.258,2.492-1.116,4.431-2.573,5.814
		c-1.46,1.386-3.453,2.076-5.981,2.076c-1.532,0-2.871-0.263-4.015-0.787c-1.144-0.528-2.095-1.252-2.852-2.173
		c-0.757-0.924-1.325-2.014-1.704-3.27c-0.378-1.254-0.567-2.602-0.567-4.041c0-1.44,0.203-2.792,0.61-4.056
		c0.406-1.266,1-2.369,1.786-3.312c0.783-0.939,1.762-1.683,2.933-2.229c1.174-0.542,2.517-0.815,4.031-0.815
		c1.032,0,2.01,0.138,2.935,0.416c0.923,0.277,1.743,0.683,2.462,1.216c0.721,0.538,1.32,1.207,1.801,2.008
		c0.48,0.805,0.791,1.73,0.94,2.783h-2.631C71.531,77.015,70.882,75.96,69.875,75.259"/>
	<path fill="#FFFFFF" d="M76.202,82.14c0.295-0.913,0.737-1.707,1.33-2.381c0.591-0.674,1.317-1.205,2.187-1.594
		c0.866-0.388,1.864-0.579,2.989-0.579c1.144,0,2.146,0.191,3.004,0.579c0.859,0.389,1.583,0.92,2.173,1.594
		c0.592,0.674,1.035,1.468,1.329,2.381c0.296,0.915,0.444,1.896,0.444,2.947c0,1.053-0.148,2.033-0.444,2.936
		c-0.294,0.904-0.737,1.694-1.329,2.368c-0.59,0.675-1.313,1.198-2.173,1.578c-0.857,0.379-1.86,0.568-3.004,0.568
		c-1.125,0-2.123-0.189-2.989-0.568c-0.869-0.38-1.596-0.903-2.187-1.578c-0.593-0.674-1.035-1.464-1.33-2.368
		c-0.295-0.902-0.443-1.883-0.443-2.936C75.759,84.037,75.907,83.055,76.202,82.14 M78.597,87.401
		c0.231,0.674,0.55,1.237,0.955,1.688c0.405,0.453,0.882,0.8,1.428,1.039c0.543,0.239,1.12,0.36,1.729,0.36s1.186-0.121,1.732-0.36
		c0.542-0.239,1.019-0.586,1.424-1.039c0.406-0.451,0.726-1.015,0.955-1.688c0.233-0.673,0.348-1.444,0.348-2.313
		c0-0.865-0.114-1.638-0.348-2.311c-0.229-0.673-0.549-1.24-0.955-1.704c-0.405-0.461-0.882-0.81-1.424-1.051
		c-0.547-0.24-1.124-0.36-1.732-0.36s-1.186,0.12-1.729,0.36c-0.546,0.241-1.022,0.59-1.428,1.051
		c-0.405,0.464-0.724,1.031-0.955,1.704c-0.229,0.673-0.348,1.445-0.348,2.311C78.249,85.957,78.367,86.728,78.597,87.401"/>
	<path fill="#FFFFFF" d="M93.866,72.462v7.394h0.056c0.388-0.794,0.998-1.371,1.827-1.729c0.832-0.361,1.744-0.54,2.74-0.54
		c1.108,0,2.073,0.202,2.896,0.608c0.819,0.406,1.503,0.955,2.047,1.646c0.546,0.692,0.955,1.49,1.232,2.395
		c0.276,0.906,0.416,1.865,0.416,2.881c0,1.015-0.137,1.976-0.401,2.88c-0.269,0.905-0.674,1.692-1.218,2.366
		c-0.546,0.674-1.229,1.205-2.048,1.593c-0.822,0.388-1.779,0.582-2.867,0.582c-0.351,0-0.743-0.039-1.177-0.111
		c-0.436-0.073-0.864-0.193-1.288-0.359c-0.424-0.167-0.826-0.394-1.203-0.679c-0.381-0.284-0.697-0.642-0.956-1.065h-0.056v1.91
		h-2.354V72.462H93.866z M102.324,82.999c-0.176-0.637-0.443-1.204-0.802-1.703c-0.359-0.498-0.822-0.895-1.386-1.191
		c-0.562-0.293-1.222-0.442-1.979-0.442c-0.795,0-1.468,0.158-2.021,0.472s-1.006,0.724-1.356,1.231
		c-0.352,0.508-0.605,1.084-0.763,1.731c-0.156,0.646-0.235,1.3-0.235,1.965c0,0.702,0.084,1.38,0.25,2.035s0.43,1.231,0.789,1.731
		c0.359,0.498,0.826,0.9,1.398,1.204c0.571,0.305,1.265,0.457,2.076,0.457c0.813,0,1.49-0.157,2.035-0.471
		c0.543-0.314,0.982-0.729,1.316-1.246c0.331-0.518,0.571-1.107,0.719-1.771c0.146-0.665,0.222-1.349,0.222-2.052
		C102.588,84.287,102.5,83.634,102.324,82.999"/>
	<path fill="#FFFFFF" d="M108.983,77.917v3.019h0.056c0.572-1.164,1.273-2.021,2.104-2.575c0.831-0.555,1.883-0.812,3.158-0.774
		v2.49c-0.944,0-1.745,0.131-2.409,0.388c-0.666,0.261-1.201,0.638-1.606,1.136c-0.407,0.497-0.702,1.104-0.887,1.813
		c-0.185,0.712-0.275,1.528-0.275,2.449v6.368h-2.353V77.917H108.983z"/>
	<path fill="#FFFFFF" d="M125.208,91.319c-1.072,0.812-2.419,1.219-4.042,1.219c-1.145,0-2.138-0.187-2.978-0.554
		c-0.839-0.369-1.547-0.886-2.118-1.551c-0.571-0.664-1.001-1.459-1.287-2.381c-0.285-0.925-0.447-1.93-0.485-3.019
		c0-1.09,0.169-2.086,0.499-2.99c0.332-0.903,0.798-1.688,1.398-2.353c0.601-0.665,1.312-1.183,2.131-1.551
		c0.822-0.37,1.722-0.555,2.701-0.555c1.273,0,2.331,0.264,3.168,0.788c0.842,0.528,1.515,1.196,2.023,2.008
		c0.507,0.813,0.857,1.698,1.052,2.659c0.193,0.96,0.271,1.873,0.236,2.741h-10.716c-0.019,0.626,0.056,1.222,0.221,1.785
		c0.166,0.562,0.435,1.061,0.803,1.495c0.369,0.435,0.839,0.78,1.414,1.038c0.571,0.259,1.245,0.389,2.021,0.389
		c0.996,0,1.813-0.231,2.449-0.693c0.638-0.46,1.057-1.163,1.262-2.104h2.324C126.97,89.296,126.277,90.506,125.208,91.319
		 M124.64,82.126c-0.213-0.498-0.498-0.928-0.857-1.288c-0.36-0.359-0.785-0.646-1.273-0.858c-0.49-0.211-1.03-0.318-1.619-0.318
		c-0.611,0-1.159,0.107-1.647,0.318c-0.49,0.213-0.909,0.504-1.262,0.873c-0.349,0.369-0.626,0.799-0.828,1.287
		c-0.204,0.489-0.323,1.011-0.361,1.565h8.223C124.979,83.151,124.853,82.625,124.64,82.126"/>
	<path fill="#FFFFFF" d="M137.538,72.794h8.232c1.629,0,2.941,0.483,3.943,1.451c1.002,0.969,1.5,2.328,1.5,4.08
		c0,1.504-0.445,2.816-1.34,3.937c-0.895,1.116-2.26,1.673-4.096,1.673h-5.739v8.164h-2.501V72.794z M147.208,75.445
		c-0.549-0.272-1.299-0.408-2.25-0.408h-4.918v6.692h4.918c1.109,0,2.008-0.249,2.701-0.746c0.689-0.504,1.039-1.383,1.039-2.646
		C148.698,76.918,148.202,75.952,147.208,75.445"/>
	<path fill="#FFFFFF" d="M161.295,83.579c0.516-0.068,0.863-0.297,1.039-0.678c0.096-0.215,0.145-0.514,0.145-0.91
		c0-0.805-0.273-1.391-0.82-1.758c-0.547-0.362-1.328-0.546-2.342-0.546c-1.176,0-2.01,0.334-2.496,1.001
		c-0.277,0.369-0.455,0.921-0.541,1.647h-2.094c0.041-1.736,0.578-2.951,1.609-3.63c1.029-0.679,2.221-1.021,3.582-1.021
		c1.574,0,2.855,0.316,3.84,0.949c0.977,0.633,1.467,1.612,1.467,2.941v8.09c0,0.247,0.047,0.441,0.145,0.59
		c0.094,0.151,0.295,0.225,0.605,0.225c0.098,0,0.211-0.008,0.34-0.021c0.123-0.011,0.256-0.032,0.398-0.056v1.756
		c-0.354,0.104-0.621,0.165-0.803,0.194c-0.188,0.023-0.436,0.04-0.754,0.04c-0.777,0-1.342-0.289-1.691-0.872
		c-0.184-0.307-0.312-0.744-0.389-1.305c-0.461,0.639-1.117,1.189-1.98,1.657c-0.855,0.466-1.801,0.702-2.836,0.702
		c-1.246,0-2.26-0.398-3.051-1.188c-0.789-0.793-1.182-1.787-1.182-2.977c0-1.303,0.389-2.317,1.164-3.033
		c0.775-0.719,1.793-1.16,3.053-1.329L161.295,83.579z M156.553,89.979c0.475,0.396,1.037,0.591,1.689,0.591
		c0.791,0,1.561-0.192,2.301-0.586c1.252-0.645,1.877-1.697,1.877-3.143v-1.898c-0.273,0.181-0.629,0.334-1.062,0.457
		c-0.434,0.122-0.857,0.209-1.273,0.262l-1.361,0.188c-0.822,0.11-1.432,0.291-1.846,0.538c-0.691,0.41-1.037,1.069-1.037,1.974
		C155.84,89.044,156.077,89.584,156.553,89.979"/>
	<path fill="#FFFFFF" d="M168.377,78.017h2.148v2.004c0.635-0.826,1.309-1.421,2.016-1.778c0.711-0.359,1.496-0.538,2.369-0.538
		c1.9,0,3.186,0.693,3.854,2.086c0.369,0.765,0.553,1.856,0.553,3.275v9.033h-2.299v-8.876c0-0.857-0.121-1.547-0.363-2.072
		c-0.402-0.879-1.127-1.316-2.178-1.316c-0.533,0-0.971,0.058-1.311,0.171c-0.619,0.193-1.162,0.58-1.627,1.157
		c-0.377,0.466-0.621,0.943-0.732,1.441c-0.115,0.493-0.168,1.2-0.168,2.119v7.376h-2.262V78.017z"/>
	<path fill="#FFFFFF" d="M189.825,83.579c0.518-0.068,0.865-0.297,1.039-0.678c0.094-0.215,0.143-0.514,0.143-0.91
		c0-0.805-0.273-1.391-0.82-1.758c-0.543-0.362-1.324-0.546-2.34-0.546c-1.174,0-2.006,0.334-2.496,1.001
		c-0.277,0.369-0.461,0.921-0.539,1.647h-2.096c0.043-1.736,0.582-2.951,1.607-3.63c1.029-0.679,2.221-1.021,3.584-1.021
		c1.578,0,2.857,0.316,3.84,0.949c0.975,0.633,1.467,1.612,1.467,2.941v8.09c0,0.247,0.049,0.441,0.141,0.59
		c0.1,0.151,0.301,0.225,0.609,0.225c0.1,0,0.211-0.008,0.338-0.021c0.123-0.011,0.254-0.032,0.402-0.056v1.756
		c-0.354,0.104-0.621,0.165-0.805,0.194c-0.182,0.023-0.434,0.04-0.754,0.04c-0.775,0-1.346-0.289-1.693-0.872
		c-0.186-0.307-0.314-0.744-0.387-1.305c-0.461,0.639-1.119,1.189-1.979,1.657c-0.857,0.466-1.805,0.702-2.842,0.702
		c-1.242,0-2.256-0.398-3.047-1.188c-0.787-0.793-1.182-1.787-1.182-2.977c0-1.303,0.391-2.317,1.164-3.033
		c0.777-0.719,1.793-1.16,3.055-1.329L189.825,83.579z M185.081,89.979c0.475,0.396,1.041,0.591,1.689,0.591
		c0.791,0,1.561-0.192,2.305-0.586c1.25-0.645,1.875-1.697,1.875-3.143v-1.898c-0.275,0.181-0.629,0.334-1.062,0.457
		c-0.434,0.122-0.855,0.209-1.273,0.262l-1.365,0.188c-0.816,0.11-1.432,0.291-1.838,0.538c-0.693,0.41-1.041,1.069-1.041,1.974
		C184.37,89.044,184.61,89.584,185.081,89.979"/>
	<path fill="#FFFFFF" d="M196.907,78.017h2.24v1.993c0.535-0.691,1.021-1.19,1.455-1.507c0.742-0.532,1.584-0.799,2.527-0.799
		c1.068,0,1.924,0.275,2.574,0.825c0.369,0.314,0.705,0.778,1.002,1.39c0.502-0.752,1.092-1.31,1.766-1.672
		c0.672-0.363,1.43-0.543,2.271-0.543c1.799,0,3.023,0.68,3.674,2.05c0.35,0.736,0.527,1.726,0.527,2.971v9.374h-2.336v-9.786
		c0-0.938-0.225-1.583-0.672-1.932c-0.443-0.353-0.988-0.525-1.627-0.525c-0.885,0-1.643,0.307-2.283,0.932
		c-0.639,0.621-0.951,1.657-0.951,3.115v8.196h-2.303v-9.188c0-0.955-0.105-1.652-0.324-2.089c-0.342-0.659-0.979-0.987-1.912-0.987
		c-0.852,0-1.629,0.347-2.322,1.037c-0.697,0.688-1.043,1.941-1.043,3.756v7.472h-2.264V78.017z"/>
	<path fill="#FFFFFF" d="M225.456,83.58c0.52-0.069,0.861-0.297,1.039-0.678c0.094-0.214,0.141-0.515,0.141-0.912
		c0-0.804-0.271-1.39-0.818-1.756c-0.543-0.364-1.324-0.546-2.338-0.546c-1.176,0-2.01,0.333-2.502,1
		c-0.273,0.369-0.451,0.921-0.537,1.647h-2.096c0.043-1.737,0.58-2.951,1.609-3.629c1.029-0.682,2.225-1.021,3.584-1.021
		c1.576,0,2.855,0.317,3.842,0.95c0.973,0.632,1.461,1.611,1.461,2.94v8.09c0,0.247,0.051,0.441,0.146,0.59
		c0.096,0.152,0.299,0.225,0.604,0.225c0.102,0,0.217-0.006,0.342-0.023c0.125-0.009,0.258-0.029,0.4-0.055v1.759
		c-0.352,0.102-0.619,0.163-0.805,0.19c-0.184,0.026-0.432,0.042-0.752,0.042c-0.781,0-1.344-0.289-1.689-0.871
		c-0.188-0.308-0.318-0.745-0.391-1.305c-0.463,0.638-1.119,1.188-1.98,1.656c-0.855,0.466-1.805,0.702-2.84,0.702
		c-1.24,0-2.258-0.397-3.049-1.188c-0.785-0.792-1.18-1.787-1.18-2.976c0-1.307,0.389-2.318,1.164-3.034
		c0.775-0.72,1.795-1.16,3.051-1.329L225.456,83.58z M220.715,89.979c0.475,0.396,1.037,0.591,1.688,0.591
		c0.791,0,1.557-0.192,2.305-0.585c1.248-0.646,1.871-1.698,1.871-3.143v-1.899c-0.27,0.181-0.627,0.334-1.061,0.457
		s-0.857,0.209-1.275,0.262l-1.363,0.188c-0.818,0.11-1.432,0.291-1.84,0.538c-0.689,0.41-1.041,1.069-1.041,1.974
		C219.999,89.045,220.239,89.584,220.715,89.979 M226.93,72.355l-3.344,3.804h-1.729l2.289-3.804H226.93z"/>
</g>
</svg>
